<mxfile host="app.diagrams.net" agent="Mozilla/5.0 (Windows NT 10.0; Win64; x64) AppleWebKit/537.36 (KHTML, like Gecko) Chrome/130.0.0.0 Safari/537.36" version="24.8.3">
  <diagram name="Сторінка-1" id="J7giZh9mR5NXdIa3qvDI">
    <mxGraphModel dx="1196" dy="807" grid="1" gridSize="10" guides="1" tooltips="1" connect="1" arrows="1" fold="1" page="1" pageScale="1" pageWidth="827" pageHeight="1169" math="0" shadow="0">
      <root>
        <mxCell id="0" />
        <mxCell id="1" parent="0" />
        <mxCell id="tFEG05Uok_W-01vZ_bOy-2" value="" style="edgeStyle=none;curved=1;rounded=0;orthogonalLoop=1;jettySize=auto;html=1;fontSize=12;startSize=8;endSize=8;" edge="1" parent="1" source="jbg-fwGAp9fuKf8pmrn0-1" target="tFEG05Uok_W-01vZ_bOy-1">
          <mxGeometry relative="1" as="geometry" />
        </mxCell>
        <mxCell id="jbg-fwGAp9fuKf8pmrn0-1" value="&lt;font style=&quot;vertical-align: inherit;&quot;&gt;&lt;font style=&quot;vertical-align: inherit; font-size: 22px;&quot;&gt;Start&lt;/font&gt;&lt;/font&gt;" style="ellipse;whiteSpace=wrap;html=1;" parent="1" vertex="1">
          <mxGeometry x="370" y="50" width="120" height="80" as="geometry" />
        </mxCell>
        <mxCell id="tFEG05Uok_W-01vZ_bOy-10" value="" style="edgeStyle=none;curved=1;rounded=0;orthogonalLoop=1;jettySize=auto;html=1;fontSize=12;startSize=8;endSize=8;" edge="1" parent="1" source="tFEG05Uok_W-01vZ_bOy-1">
          <mxGeometry relative="1" as="geometry">
            <mxPoint x="430" y="300" as="targetPoint" />
          </mxGeometry>
        </mxCell>
        <mxCell id="tFEG05Uok_W-01vZ_bOy-1" value="Operations (a,b)" style="rounded=1;whiteSpace=wrap;html=1;" vertex="1" parent="1">
          <mxGeometry x="370" y="170" width="120" height="60" as="geometry" />
        </mxCell>
        <mxCell id="tFEG05Uok_W-01vZ_bOy-3" style="edgeStyle=none;curved=1;rounded=0;orthogonalLoop=1;jettySize=auto;html=1;exitX=0.5;exitY=1;exitDx=0;exitDy=0;fontSize=12;startSize=8;endSize=8;" edge="1" parent="1" source="jbg-fwGAp9fuKf8pmrn0-1" target="jbg-fwGAp9fuKf8pmrn0-1">
          <mxGeometry relative="1" as="geometry" />
        </mxCell>
        <mxCell id="tFEG05Uok_W-01vZ_bOy-13" style="edgeStyle=none;curved=1;rounded=0;orthogonalLoop=1;jettySize=auto;html=1;fontSize=12;startSize=8;endSize=8;" edge="1" parent="1" source="tFEG05Uok_W-01vZ_bOy-11" target="tFEG05Uok_W-01vZ_bOy-12">
          <mxGeometry relative="1" as="geometry" />
        </mxCell>
        <mxCell id="tFEG05Uok_W-01vZ_bOy-11" value="t1 = a - b" style="rounded=0;whiteSpace=wrap;html=1;" vertex="1" parent="1">
          <mxGeometry x="370" y="300" width="120" height="60" as="geometry" />
        </mxCell>
        <mxCell id="tFEG05Uok_W-01vZ_bOy-12" value="t2 = pow(t1, 4)&lt;span style=&quot;color: rgba(0, 0, 0, 0); font-family: monospace; font-size: 0px; text-align: start; text-wrap-mode: nowrap;&quot;&gt;%3CmxGraphModel%3E%3Croot%3E%3CmxCell%20id%3D%220%22%2F%3E%3CmxCell%20id%3D%221%22%20parent%3D%220%22%2F%3E%3CmxCell%20id%3D%222%22%20value%3D%22T1%20%3D%20a%20-%20b%22%20style%3D%22rounded%3D0%3BwhiteSpace%3Dwrap%3Bhtml%3D1%3B%22%20vertex%3D%221%22%20parent%3D%221%22%3E%3CmxGeometry%20x%3D%22370%22%20y%3D%22300%22%20width%3D%22120%22%20height%3D%2260%22%20as%3D%22geometry%22%2F%3E%3C%2FmxCell%3E%3C%2Froot%3E%3C%2FmxGraphModel%3E&lt;/span&gt;" style="rounded=0;whiteSpace=wrap;html=1;" vertex="1" parent="1">
          <mxGeometry x="370" y="380" width="120" height="60" as="geometry" />
        </mxCell>
        <mxCell id="tFEG05Uok_W-01vZ_bOy-18" style="edgeStyle=none;curved=1;rounded=0;orthogonalLoop=1;jettySize=auto;html=1;fontSize=12;startSize=8;endSize=8;" edge="1" parent="1" source="tFEG05Uok_W-01vZ_bOy-14" target="tFEG05Uok_W-01vZ_bOy-16">
          <mxGeometry relative="1" as="geometry" />
        </mxCell>
        <mxCell id="tFEG05Uok_W-01vZ_bOy-14" value="&lt;span style=&quot;font-family: monospace;&quot;&gt;t3 = pow(a, 4)&lt;/span&gt;" style="rounded=0;whiteSpace=wrap;html=1;" vertex="1" parent="1">
          <mxGeometry x="370" y="460" width="120" height="60" as="geometry" />
        </mxCell>
        <mxCell id="tFEG05Uok_W-01vZ_bOy-21" style="edgeStyle=none;curved=1;rounded=0;orthogonalLoop=1;jettySize=auto;html=1;fontSize=12;startSize=8;endSize=8;" edge="1" parent="1" source="tFEG05Uok_W-01vZ_bOy-16" target="tFEG05Uok_W-01vZ_bOy-19">
          <mxGeometry relative="1" as="geometry" />
        </mxCell>
        <mxCell id="tFEG05Uok_W-01vZ_bOy-16" value="&lt;span style=&quot;font-family: monospace;&quot;&gt;t4 = 4 * pow(a, 3) * b&lt;/span&gt;" style="rounded=0;whiteSpace=wrap;html=1;" vertex="1" parent="1">
          <mxGeometry x="355" y="540" width="150" height="60" as="geometry" />
        </mxCell>
        <mxCell id="tFEG05Uok_W-01vZ_bOy-17" value="t6 = 4 * a * pow(b, 3)" style="rounded=0;whiteSpace=wrap;html=1;" vertex="1" parent="1">
          <mxGeometry x="370" y="700" width="120" height="60" as="geometry" />
        </mxCell>
        <mxCell id="tFEG05Uok_W-01vZ_bOy-22" style="edgeStyle=none;curved=1;rounded=0;orthogonalLoop=1;jettySize=auto;html=1;entryX=0.5;entryY=0;entryDx=0;entryDy=0;fontSize=12;startSize=8;endSize=8;" edge="1" parent="1" source="tFEG05Uok_W-01vZ_bOy-19" target="tFEG05Uok_W-01vZ_bOy-17">
          <mxGeometry relative="1" as="geometry" />
        </mxCell>
        <mxCell id="tFEG05Uok_W-01vZ_bOy-19" value="&lt;span style=&quot;font-family: monospace;&quot;&gt;t5 = 6 * pow(a, 2) * pow(b, 2)&lt;/span&gt;" style="rounded=0;whiteSpace=wrap;html=1;" vertex="1" parent="1">
          <mxGeometry x="330" y="620" width="200" height="60" as="geometry" />
        </mxCell>
        <mxCell id="tFEG05Uok_W-01vZ_bOy-26" style="edgeStyle=none;curved=1;rounded=0;orthogonalLoop=1;jettySize=auto;html=1;entryX=0.5;entryY=0;entryDx=0;entryDy=0;fontSize=12;startSize=8;endSize=8;" edge="1" parent="1" source="tFEG05Uok_W-01vZ_bOy-23" target="tFEG05Uok_W-01vZ_bOy-25">
          <mxGeometry relative="1" as="geometry" />
        </mxCell>
        <mxCell id="tFEG05Uok_W-01vZ_bOy-23" value="t7 = pow(b, 4)" style="rounded=0;whiteSpace=wrap;html=1;" vertex="1" parent="1">
          <mxGeometry x="160" y="110" width="100" height="60" as="geometry" />
        </mxCell>
        <mxCell id="tFEG05Uok_W-01vZ_bOy-30" style="edgeStyle=none;curved=1;rounded=0;orthogonalLoop=1;jettySize=auto;html=1;fontSize=12;startSize=8;endSize=8;" edge="1" parent="1" source="tFEG05Uok_W-01vZ_bOy-25" target="tFEG05Uok_W-01vZ_bOy-29">
          <mxGeometry relative="1" as="geometry" />
        </mxCell>
        <mxCell id="tFEG05Uok_W-01vZ_bOy-25" value="c = t5 - t6 + t7&lt;span style=&quot;color: rgba(0, 0, 0, 0); font-family: monospace; font-size: 0px; text-align: start; text-wrap-mode: nowrap;&quot;&gt;%3CmxGraphModel%3E%3Croot%3E%3CmxCell%20id%3D%220%22%2F%3E%3CmxCell%20id%3D%221%22%20parent%3D%220%22%2F%3E%3CmxCell%20id%3D%222%22%20value%3D%22t7%20%3D%20pow(b%2C%204)%22%20style%3D%22rounded%3D0%3BwhiteSpace%3Dwrap%3Bhtml%3D1%3B%22%20vertex%3D%221%22%20parent%3D%221%22%3E%3CmxGeometry%20x%3D%22380%22%20y%3D%22780%22%20width%3D%22100%22%20height%3D%2260%22%20as%3D%22geometry%22%2F%3E%3C%2FmxCell%3E%3C%2Froot%3E%3C%2FmxGraphModel%3E&lt;/span&gt;" style="rounded=0;whiteSpace=wrap;html=1;" vertex="1" parent="1">
          <mxGeometry x="160" y="190" width="100" height="60" as="geometry" />
        </mxCell>
        <mxCell id="tFEG05Uok_W-01vZ_bOy-32" style="edgeStyle=none;curved=1;rounded=0;orthogonalLoop=1;jettySize=auto;html=1;entryX=0.5;entryY=0;entryDx=0;entryDy=0;fontSize=12;startSize=8;endSize=8;" edge="1" parent="1" source="tFEG05Uok_W-01vZ_bOy-29" target="tFEG05Uok_W-01vZ_bOy-31">
          <mxGeometry relative="1" as="geometry" />
        </mxCell>
        <mxCell id="tFEG05Uok_W-01vZ_bOy-29" value="c1 = t2 - t3 + t4" style="rounded=0;whiteSpace=wrap;html=1;" vertex="1" parent="1">
          <mxGeometry x="160" y="270" width="100" height="60" as="geometry" />
        </mxCell>
        <mxCell id="tFEG05Uok_W-01vZ_bOy-31" value="t12 = c1/c&lt;span style=&quot;color: rgba(0, 0, 0, 0); font-family: monospace; font-size: 0px; text-align: start; text-wrap-mode: nowrap;&quot;&gt;%3CmxGraphModel%3E%3Croot%3E%3CmxCell%20id%3D%220%22%2F%3E%3CmxCell%20id%3D%221%22%20parent%3D%220%22%2F%3E%3CmxCell%20id%3D%222%22%20value%3D%22c1%20%3D%20t2%20-%20t3%20%2B%20t4%22%20style%3D%22rounded%3D0%3BwhiteSpace%3Dwrap%3Bhtml%3D1%3B%22%20vertex%3D%221%22%20parent%3D%221%22%3E%3CmxGeometry%20x%3D%22380%22%20y%3D%22940%22%20width%3D%22100%22%20height%3D%2260%22%20as%3D%22geometry%22%2F%3E%3C%2FmxCell%3E%3C%2Froot%3E%3C%2FmxGraphModel%3E&lt;/span&gt;" style="rounded=0;whiteSpace=wrap;html=1;" vertex="1" parent="1">
          <mxGeometry x="160" y="350" width="100" height="60" as="geometry" />
        </mxCell>
        <mxCell id="tFEG05Uok_W-01vZ_bOy-36" value="" style="edgeStyle=none;curved=1;rounded=0;orthogonalLoop=1;jettySize=auto;html=1;fontSize=12;startSize=8;endSize=8;" edge="1" parent="1" source="tFEG05Uok_W-01vZ_bOy-33" target="tFEG05Uok_W-01vZ_bOy-35">
          <mxGeometry relative="1" as="geometry" />
        </mxCell>
        <mxCell id="tFEG05Uok_W-01vZ_bOy-33" value="return t12" style="rounded=0;whiteSpace=wrap;html=1;" vertex="1" parent="1">
          <mxGeometry x="160" y="430" width="100" height="60" as="geometry" />
        </mxCell>
        <mxCell id="tFEG05Uok_W-01vZ_bOy-35" value="end" style="ellipse;whiteSpace=wrap;html=1;rounded=0;" vertex="1" parent="1">
          <mxGeometry x="170" y="520" width="80" height="50" as="geometry" />
        </mxCell>
        <mxCell id="tFEG05Uok_W-01vZ_bOy-40" style="edgeStyle=none;curved=1;rounded=0;orthogonalLoop=1;jettySize=auto;html=1;entryX=0.5;entryY=0;entryDx=0;entryDy=0;fontSize=12;startSize=8;endSize=8;" edge="1" parent="1" source="tFEG05Uok_W-01vZ_bOy-37" target="tFEG05Uok_W-01vZ_bOy-39">
          <mxGeometry relative="1" as="geometry" />
        </mxCell>
        <mxCell id="tFEG05Uok_W-01vZ_bOy-37" value="&lt;font style=&quot;vertical-align: inherit;&quot;&gt;&lt;font style=&quot;vertical-align: inherit; font-size: 22px;&quot;&gt;Start&lt;/font&gt;&lt;/font&gt;" style="ellipse;whiteSpace=wrap;html=1;" vertex="1" parent="1">
          <mxGeometry x="655" y="70" width="105" height="70" as="geometry" />
        </mxCell>
        <mxCell id="tFEG05Uok_W-01vZ_bOy-42" value="" style="edgeStyle=none;curved=1;rounded=0;orthogonalLoop=1;jettySize=auto;html=1;fontSize=12;startSize=8;endSize=8;" edge="1" parent="1" source="tFEG05Uok_W-01vZ_bOy-39" target="tFEG05Uok_W-01vZ_bOy-41">
          <mxGeometry relative="1" as="geometry" />
        </mxCell>
        <mxCell id="tFEG05Uok_W-01vZ_bOy-39" value="int f_a, f_b, d_a, d_b" style="rounded=0;whiteSpace=wrap;html=1;" vertex="1" parent="1">
          <mxGeometry x="647.5" y="180" width="120" height="60" as="geometry" />
        </mxCell>
        <mxCell id="tFEG05Uok_W-01vZ_bOy-44" style="edgeStyle=none;curved=1;rounded=0;orthogonalLoop=1;jettySize=auto;html=1;entryX=0.5;entryY=0;entryDx=0;entryDy=0;fontSize=12;startSize=8;endSize=8;" edge="1" parent="1" source="tFEG05Uok_W-01vZ_bOy-41" target="tFEG05Uok_W-01vZ_bOy-43">
          <mxGeometry relative="1" as="geometry" />
        </mxCell>
        <mxCell id="tFEG05Uok_W-01vZ_bOy-41" value="float_result=&lt;div&gt;operations(f_a, f_b)&lt;span style=&quot;color: rgba(0, 0, 0, 0); font-family: monospace; font-size: 0px; text-align: start; text-wrap-mode: nowrap; background-color: initial;&quot;&gt;%3CmxGraphModel%3E%3Croot%3E%3CmxCell%20id%3D%220%22%2F%3E%3CmxCell%20id%3D%221%22%20parent%3D%220%22%2F%3E%3CmxCell%20id%3D%222%22%20value%3D%22%26lt%3Bfont%20style%3D%26quot%3Bvertical-align%3A%20inherit%3B%26quot%3B%26gt%3B%26lt%3Bfont%20style%3D%26quot%3Bvertical-align%3A%20inherit%3B%20font-size%3A%2022px%3B%26quot%3B%26gt%3BStart%26lt%3B%2Ffont%26gt%3B%26lt%3B%2Ffont%26gt%3B%22%20style%3D%22ellipse%3BwhiteSpace%3Dwrap%3Bhtml%3D1%3B%22%20vertex%3D%221%22%20parent%3D%221%22%3E%3CmxGeometry%20x%3D%22370%22%20y%3D%2250%22%20width%3D%22120%22%20height%3D%2280%22%20as%3D%22geometry%22%2F%3E%3C%2FmxCell%3E%3C%2Froot%3E%3C%2FmxGraphModel%3E&lt;/span&gt;&lt;/div&gt;" style="shape=process;whiteSpace=wrap;html=1;backgroundOutline=1;" vertex="1" parent="1">
          <mxGeometry x="647.5" y="260" width="120" height="60" as="geometry" />
        </mxCell>
        <mxCell id="tFEG05Uok_W-01vZ_bOy-43" value="float_result=&lt;div&gt;operations(d_a, d_b)&lt;span style=&quot;color: rgba(0, 0, 0, 0); font-family: monospace; font-size: 0px; text-align: start; text-wrap-mode: nowrap; background-color: initial;&quot;&gt;%3CmxGraphModel%3E%3Croot%3E%3CmxCell%20id%3D%220%22%2F%3E%3CmxCell%20id%3D%221%22%20parent%3D%220%22%2F%3E%3CmxCell%20id%3D%222%22%20value%3D%22%26lt%3Bfont%20style%3D%26quot%3Bvertical-align%3A%20inherit%3B%26quot%3B%26gt%3B%26lt%3Bfont%20style%3D%26quot%3Bvertical-align%3A%20inherit%3B%20font-size%3A%2022px%3B%26quot%3B%26gt%3BStart%26lt%3B%2Ffont%26gt%3B%26lt%3B%2Ffont%26gt%3B%22%20style%3D%22ellipse%3BwhiteSpace%3Dwrap%3Bhtml%3D1%3B%22%20vertex%3D%221%22%20parent%3D%221%22%3E%3CmxGeometry%20x%3D%22370%22%20y%3D%2250%22%20width%3D%22120%22%20height%3D%2280%22%20as%3D%22geometry%22%2F%3E%3C%2FmxCell%3E%3C%2Froot%3E%3C%2FmxGraphModel%3E&lt;/span&gt;&lt;/div&gt;" style="shape=process;whiteSpace=wrap;html=1;backgroundOutline=1;" vertex="1" parent="1">
          <mxGeometry x="647.5" y="350" width="120" height="60" as="geometry" />
        </mxCell>
        <mxCell id="tFEG05Uok_W-01vZ_bOy-52" value="" style="edgeStyle=none;curved=1;rounded=0;orthogonalLoop=1;jettySize=auto;html=1;fontSize=12;startSize=8;endSize=8;" edge="1" parent="1" source="tFEG05Uok_W-01vZ_bOy-45" target="tFEG05Uok_W-01vZ_bOy-50">
          <mxGeometry relative="1" as="geometry" />
        </mxCell>
        <mxCell id="tFEG05Uok_W-01vZ_bOy-45" value="output: float result: float_result&lt;div&gt;double result: double_result&lt;/div&gt;" style="shape=parallelogram;perimeter=parallelogramPerimeter;whiteSpace=wrap;html=1;fixedSize=1;" vertex="1" parent="1">
          <mxGeometry x="580" y="440" width="255" height="60" as="geometry" />
        </mxCell>
        <mxCell id="tFEG05Uok_W-01vZ_bOy-48" style="edgeStyle=none;curved=1;rounded=0;orthogonalLoop=1;jettySize=auto;html=1;fontSize=12;startSize=8;endSize=8;" edge="1" parent="1" source="tFEG05Uok_W-01vZ_bOy-43" target="tFEG05Uok_W-01vZ_bOy-45">
          <mxGeometry relative="1" as="geometry" />
        </mxCell>
        <mxCell id="tFEG05Uok_W-01vZ_bOy-50" value="&lt;font style=&quot;vertical-align: inherit;&quot;&gt;&lt;font style=&quot;vertical-align: inherit; font-size: 22px;&quot;&gt;End&lt;/font&gt;&lt;/font&gt;" style="ellipse;whiteSpace=wrap;html=1;" vertex="1" parent="1">
          <mxGeometry x="655" y="535" width="105" height="70" as="geometry" />
        </mxCell>
        <mxCell id="tFEG05Uok_W-01vZ_bOy-55" value="" style="endArrow=none;html=1;rounded=0;fontSize=12;startSize=8;endSize=8;curved=1;entryX=0;entryY=0.5;entryDx=0;entryDy=0;" edge="1" parent="1" target="tFEG05Uok_W-01vZ_bOy-17">
          <mxGeometry width="50" height="50" relative="1" as="geometry">
            <mxPoint x="280" y="730" as="sourcePoint" />
            <mxPoint x="450" y="380" as="targetPoint" />
          </mxGeometry>
        </mxCell>
        <mxCell id="tFEG05Uok_W-01vZ_bOy-56" value="" style="endArrow=none;html=1;rounded=0;fontSize=12;startSize=8;endSize=8;curved=1;" edge="1" parent="1">
          <mxGeometry width="50" height="50" relative="1" as="geometry">
            <mxPoint x="280" y="730" as="sourcePoint" />
            <mxPoint x="280" y="60" as="targetPoint" />
          </mxGeometry>
        </mxCell>
        <mxCell id="tFEG05Uok_W-01vZ_bOy-57" value="" style="endArrow=none;html=1;rounded=0;fontSize=12;startSize=8;endSize=8;curved=1;" edge="1" parent="1">
          <mxGeometry width="50" height="50" relative="1" as="geometry">
            <mxPoint x="280" y="60" as="sourcePoint" />
            <mxPoint x="220" y="60" as="targetPoint" />
          </mxGeometry>
        </mxCell>
        <mxCell id="tFEG05Uok_W-01vZ_bOy-58" value="" style="endArrow=classic;html=1;rounded=0;fontSize=12;startSize=8;endSize=8;curved=1;" edge="1" parent="1">
          <mxGeometry width="50" height="50" relative="1" as="geometry">
            <mxPoint x="220" y="60" as="sourcePoint" />
            <mxPoint x="220" y="100" as="targetPoint" />
          </mxGeometry>
        </mxCell>
      </root>
    </mxGraphModel>
  </diagram>
</mxfile>
